# xmcd CD database file
#
# Track frame offsets:
#	183
#	15348
#	30630
#	52638
#	79875
#	97240
#	118233
#	133448
#	149785
#	165230
#
# Disc length: 2593 seconds
#
# Revision: 0
# Processed by: cddbd v1.5.1PL0 Copyright (c) Steve Scherf et al.
# Submitted via: CDex 1.51
#
DISCID=860a1f0a
DTITLE=Badiane - Flavours
DYEAR=1995
DGENRE=Jazz
TTITLE0=Roulez Jeunesse
TTITLE1=After the Shower
TTITLE2=No War Blues
TTITLE3=Taj Mahal
TTITLE4=Banjobim
TTITLE5=J. S. Blues
TTITLE6=C. Tune
TTITLE7=Transat
TTITLE8=Nouvelle Vie
TTITLE9=Cordoba
EXTD=YEAR: 1995
EXTT0=
EXTT1=
EXTT2=
EXTT3=
EXTT4=
EXTT5=
EXTT6=
EXTT7=
EXTT8=
EXTT9=
PLAYORDER=
